<svg width="17" height="16" viewBox="0 0 17 16" fill="none" xmlns="http://www.w3.org/2000/svg">
<path d="M16.6618 7.16323C16.4819 6.81823 16.2318 6.51323 15.9343 6.2699L14.7116 1.785C14.4256 0.733332 13.4791 0 12.4101 0H4.58673C3.51768 0 2.57124 0.733332 2.28518 1.785L1.06413 6.26841C0.393941 6.8184 0 7.64673 0 8.53507V14.8083C0 15.465 0.52471 16 1.16875 16H3.08124C3.72528 16 4.24999 15.465 4.24999 14.8083V13.3333H12.75V14.8083C12.75 15.465 13.2747 16 13.9188 16H15.8313C16.4753 16 17 15.465 17 14.8083V8.53507C16.9984 8.05674 16.8824 7.58156 16.6618 7.16323ZM3.15985 10.6416C2.63188 10.6416 2.2036 10.205 2.2036 9.66663C2.2036 9.12831 2.63188 8.69164 3.15985 8.69164C3.6862 8.69164 4.1161 9.12831 4.1161 9.66663C4.1161 10.205 3.6862 10.6416 3.15985 10.6416ZM3.54398 2.14159C3.67475 1.66658 4.10303 1.33325 4.58687 1.33325H12.4102C12.8941 1.33325 13.3224 1.66658 13.4531 2.14159L14.5042 5.99993H2.49305L3.54398 2.14159ZM10.1331 10.3331H6.86385C6.50259 10.3331 6.21001 10.0348 6.21001 9.66648C6.21001 9.29814 6.50259 8.99982 6.86385 8.99982H10.1331C10.4944 8.99982 10.7869 9.29814 10.7869 9.66648C10.7869 10.0348 10.4944 10.3331 10.1331 10.3331ZM13.6737 8.69149C14.2017 8.69149 14.63 9.12816 14.63 9.66648C14.63 10.2048 14.2017 10.6415 13.6737 10.6415C13.1474 10.6415 12.7175 10.2048 12.7175 9.66648C12.7175 9.12816 13.1474 8.69149 13.6737 8.69149Z" fill="white"/>
</svg>
