<svg width="17" height="16" viewBox="0 0 17 16" fill="none" xmlns="http://www.w3.org/2000/svg">
<path fill-rule="evenodd" clip-rule="evenodd" d="M13.3332 0.45273C13.3332 0.0502371 13.8543 -0.151432 14.1588 0.133274L16.8586 2.65756C17.0471 2.8338 17.0471 3.1202 16.8586 3.29645L14.1588 5.82073C13.8543 6.10543 13.3332 5.90377 13.3332 5.50127V3.88115H4.63294C4.09914 3.88115 3.66684 4.28533 3.66684 4.78442V6.59263C3.66684 7.09172 3.23364 7.4959 2.69984 7.4959C2.16605 7.4959 1.73284 7.09172 1.73284 6.59263V4.78442C1.73284 3.28718 3.03154 2.07294 4.63292 2.07294H13.3331L13.3332 0.45273ZM13.3332 11.2156C13.3332 11.7147 12.9009 12.1188 12.3671 12.1188H3.66684V10.4987C3.66684 10.0962 3.14574 9.89456 2.84123 10.1793L0.141378 12.7036C-0.0471262 12.8798 -0.0471262 13.1662 0.141378 13.3424L2.84123 15.8667C3.14574 16.1514 3.66684 15.9498 3.66684 15.5473V13.9271H12.3671C13.9684 13.9271 15.2671 12.7129 15.2671 11.2157V9.40745C15.2671 8.90837 14.8339 8.50418 14.3001 8.50418C13.7663 8.50418 13.3331 8.90837 13.3331 9.40745L13.3332 11.2156Z" fill="white"/>
</svg>
