<svg width="36" height="20" viewBox="0 0 36 20" fill="none" xmlns="http://www.w3.org/2000/svg">
<path d="M16.0785 19.8622C15.5903 19.8622 15.1575 19.6958 14.6027 19.374L1.43152 11.7398C0.44396 11.1739 0.000112534 10.6967 0.000112534 9.9311C0.000112534 9.17656 0.44396 8.69942 1.43152 8.12242L14.6027 0.488233C15.1575 0.166443 15.5903 0 16.0785 0C17.0439 0 17.7651 0.743446 17.7651 1.93074V17.9315C17.7651 19.1299 17.0439 19.8622 16.0785 19.8622Z" fill="white"/>
<path d="M34.3134 19.8622C33.8251 19.8622 33.3924 19.6958 32.8376 19.374L19.6664 11.7398C18.6788 11.1739 18.235 10.6967 18.235 9.9311C18.235 9.17656 18.6788 8.69942 19.6664 8.12242L32.8376 0.488233C33.3924 0.166443 33.8251 0 34.3134 0C35.2787 0 36 0.743446 36 1.93074V17.9315C36 19.1299 35.2787 19.8622 34.3134 19.8622Z" fill="white"/>
</svg>
