<svg width="36" height="20" viewBox="0 0 36 20" fill="none" xmlns="http://www.w3.org/2000/svg">
<path d="M19.9215 19.8622C20.4097 19.8622 20.8425 19.6958 21.3973 19.374L34.5685 11.7398C35.556 11.1739 35.9999 10.6967 35.9999 9.9311C35.9999 9.17656 35.556 8.69942 34.5685 8.12242L21.3973 0.488233C20.8425 0.166443 20.4097 0 19.9215 0C18.9561 0 18.2349 0.743446 18.2349 1.93074V17.9315C18.2349 19.1299 18.9561 19.8622 19.9215 19.8622Z" fill="white"/>
<path d="M1.68662 19.8622C2.17486 19.8622 2.60761 19.6958 3.16242 19.374L16.3336 11.7398C17.3212 11.1739 17.765 10.6967 17.765 9.9311C17.765 9.17656 17.3212 8.69942 16.3336 8.12242L3.16242 0.488233C2.60761 0.166443 2.17486 0 1.68662 0C0.721253 0 0 0.743446 0 1.93074V17.9315C0 19.1299 0.721253 19.8622 1.68662 19.8622Z" fill="white"/>
</svg>
