<svg width="34" height="32" viewBox="0 0 34 32" fill="none" xmlns="http://www.w3.org/2000/svg">
<rect x="0.5" width="33" height="32" rx="9" fill="white" fill-opacity="0.9"/>
<path d="M27.9217 24.325L23.703 14.1063C23.6251 13.9175 23.4929 13.7562 23.3232 13.6427C23.1535 13.5291 22.9539 13.4685 22.7498 13.4685C22.5456 13.4685 22.346 13.5291 22.1763 13.6427C22.0067 13.7562 21.8745 13.9175 21.7966 14.1063L17.5778 24.325C17.5254 24.4503 17.4982 24.5848 17.4978 24.7206C17.4975 24.8565 17.524 24.991 17.5758 25.1166C17.6276 25.2422 17.7038 25.3563 17.7998 25.4524C17.8959 25.5484 18.01 25.6246 18.1356 25.6764C18.2611 25.7283 18.3957 25.7548 18.5316 25.7545C18.6674 25.7541 18.8019 25.727 18.9272 25.6745C19.0525 25.6221 19.1662 25.5454 19.2618 25.4489C19.3574 25.3523 19.433 25.2379 19.4842 25.112L20.3434 23.0312H25.1561L26.0153 25.112C26.0932 25.3008 26.2254 25.4623 26.3951 25.5758C26.5649 25.6894 26.7645 25.75 26.9688 25.75C27.1382 25.7499 27.305 25.708 27.4545 25.6281C27.6039 25.5482 27.7313 25.4327 27.8255 25.2918C27.9197 25.1509 27.9777 24.989 27.9944 24.8204C28.0111 24.6518 27.986 24.4816 27.9213 24.325H27.9217ZM21.1952 20.9688L22.75 17.2023L24.3048 20.9688H21.1952ZM18.055 20.0744C18.2152 19.8531 18.2811 19.5772 18.2381 19.3074C18.1951 19.0376 18.0468 18.7959 17.8258 18.6353C17.8164 18.6283 17.1227 18.1136 16.1153 17.0073C17.9739 14.4911 19.0267 11.6284 19.4561 10.2812H20.9688C21.2423 10.2812 21.5046 10.1726 21.698 9.9792C21.8914 9.78581 22 9.5235 22 9.25C22 8.9765 21.8914 8.71419 21.698 8.5208C21.5046 8.3274 21.2423 8.21875 20.9688 8.21875H15.5312V7.28125C15.5313 7.00775 15.4226 6.74544 15.2292 6.55205C15.0358 6.35865 14.7735 6.25 14.5 6.25C14.2265 6.25 13.9642 6.35865 13.7708 6.55205C13.5774 6.74544 13.4688 7.00775 13.4688 7.28125V8.21875H8.03125C7.75775 8.21875 7.49544 8.3274 7.30205 8.5208C7.10865 8.71419 7 8.9765 7 9.25C7 9.5235 7.10865 9.78581 7.30205 9.9792C7.49544 10.1726 7.75775 10.2812 8.03125 10.2812H17.2773C16.8311 11.5445 16.0094 13.5391 14.7559 15.3606C13.2836 13.4069 12.7366 12.1427 12.7323 12.1323C12.6246 11.8832 12.4229 11.6867 12.1711 11.5853C11.9194 11.4839 11.6378 11.4858 11.3874 11.5907C11.1371 11.6956 10.9382 11.8949 10.8339 12.1455C10.7295 12.3961 10.7282 12.6777 10.8302 12.9292C10.8573 12.9939 11.5122 14.5338 13.308 16.8634C13.3511 16.9192 13.3937 16.9736 13.4364 17.028C11.597 19.1069 9.79234 20.3964 9.03719 20.8127C8.79706 20.9436 8.6188 21.1646 8.54162 21.427C8.46444 21.6894 8.49465 21.9717 8.62563 22.2119C8.7566 22.452 8.97759 22.6303 9.24 22.7074C9.5024 22.7846 9.78472 22.7544 10.0248 22.6234C10.1261 22.5681 12.303 21.363 14.7888 18.6114C15.8444 19.7402 16.57 20.2727 16.6136 20.3036C16.7233 20.3833 16.8476 20.4405 16.9794 20.4721C17.1113 20.5037 17.248 20.509 17.3819 20.4876C17.5158 20.4663 17.6442 20.4188 17.7597 20.3478C17.8751 20.2768 17.9755 20.1837 18.055 20.0739V20.0744Z" fill="#088581"/>
</svg>
