<svg width="33" height="32" viewBox="0 0 33 32" fill="none" xmlns="http://www.w3.org/2000/svg">
<rect width="33" height="32" rx="9" fill="white" fill-opacity="0.25"/>
<path d="M27.4217 24.325L23.203 14.1063C23.1251 13.9175 22.9929 13.7562 22.8232 13.6427C22.6535 13.5291 22.4539 13.4685 22.2498 13.4685C22.0456 13.4685 21.846 13.5291 21.6763 13.6427C21.5067 13.7562 21.3745 13.9175 21.2966 14.1063L17.0778 24.325C17.0254 24.4503 16.9982 24.5848 16.9978 24.7206C16.9975 24.8565 17.024 24.991 17.0758 25.1166C17.1276 25.2422 17.2038 25.3563 17.2998 25.4524C17.3959 25.5484 17.51 25.6246 17.6356 25.6764C17.7611 25.7283 17.8957 25.7548 18.0316 25.7545C18.1674 25.7541 18.3019 25.727 18.4272 25.6745C18.5525 25.6221 18.6662 25.5454 18.7618 25.4489C18.8574 25.3523 18.933 25.2379 18.9842 25.112L19.8434 23.0312H24.6561L25.5153 25.112C25.5932 25.3008 25.7254 25.4623 25.8951 25.5758C26.0649 25.6894 26.2645 25.75 26.4688 25.75C26.6382 25.7499 26.805 25.708 26.9545 25.6281C27.1039 25.5482 27.2313 25.4327 27.3255 25.2918C27.4197 25.1509 27.4777 24.989 27.4944 24.8204C27.5111 24.6518 27.486 24.4816 27.4213 24.325H27.4217ZM20.6952 20.9688L22.25 17.2023L23.8048 20.9688H20.6952ZM17.555 20.0744C17.7152 19.8531 17.7811 19.5772 17.7381 19.3074C17.6951 19.0376 17.5468 18.7959 17.3258 18.6353C17.3164 18.6283 16.6227 18.1136 15.6153 17.0073C17.4739 14.4911 18.5267 11.6284 18.9561 10.2812H20.4688C20.7423 10.2812 21.0046 10.1726 21.198 9.9792C21.3914 9.78581 21.5 9.5235 21.5 9.25C21.5 8.9765 21.3914 8.71419 21.198 8.5208C21.0046 8.3274 20.7423 8.21875 20.4688 8.21875H15.0312V7.28125C15.0313 7.00775 14.9226 6.74544 14.7292 6.55205C14.5358 6.35865 14.2735 6.25 14 6.25C13.7265 6.25 13.4642 6.35865 13.2708 6.55205C13.0774 6.74544 12.9688 7.00775 12.9688 7.28125V8.21875H7.53125C7.25775 8.21875 6.99544 8.3274 6.80205 8.5208C6.60865 8.71419 6.5 8.9765 6.5 9.25C6.5 9.5235 6.60865 9.78581 6.80205 9.9792C6.99544 10.1726 7.25775 10.2812 7.53125 10.2812H16.7773C16.3311 11.5445 15.5094 13.5391 14.2559 15.3606C12.7836 13.4069 12.2366 12.1427 12.2323 12.1323C12.1246 11.8832 11.9229 11.6867 11.6711 11.5853C11.4194 11.4839 11.1378 11.4858 10.8874 11.5907C10.6371 11.6956 10.4382 11.8949 10.3339 12.1455C10.2295 12.3961 10.2282 12.6777 10.3302 12.9292C10.3573 12.9939 11.0122 14.5338 12.808 16.8634C12.8511 16.9192 12.8937 16.9736 12.9364 17.028C11.097 19.1069 9.29234 20.3964 8.53719 20.8127C8.29706 20.9436 8.1188 21.1646 8.04162 21.427C7.96444 21.6894 7.99465 21.9717 8.12563 22.2119C8.2566 22.452 8.47759 22.6303 8.74 22.7074C9.0024 22.7846 9.28472 22.7544 9.52484 22.6234C9.62609 22.5681 11.803 21.363 14.2888 18.6114C15.3444 19.7402 16.07 20.2727 16.1136 20.3036C16.2233 20.3833 16.3476 20.4405 16.4794 20.4721C16.6113 20.5037 16.748 20.509 16.8819 20.4876C17.0158 20.4663 17.1442 20.4188 17.2597 20.3478C17.3751 20.2768 17.4755 20.1837 17.555 20.0739V20.0744Z" fill="white"/>
</svg>
